<svg id="Warstwa_1" data-name="Warstwa 1" xmlns="http://www.w3.org/2000/svg" viewBox="0 0 124.03 125.32"><defs><style>.cls-1{fill:#0061ef;}.cls-2{fill:#fff;}</style></defs><path class="cls-1" d="M100.63,6.85H22.13A16.42,16.42,0,0,0,5.88,23.33v79.59A16.42,16.42,0,0,0,22.13,119.4h78.5a16.42,16.42,0,0,0,16.25-16.48V23.33A16.42,16.42,0,0,0,100.63,6.85Z"/><path class="cls-2" d="M102.27,52.73a29.06,29.06,0,0,0-58.11-.3v.36l.05,5.93v18a5,5,0,0,0,5,5h.31a5,5,0,0,0,5-5V56l.07-4.28a18.6,18.6,0,0,1,37.16,1c0,.19,0,.37,0,.56h0V66.94l0,11.89h0v4.34a5.08,5.08,0,0,0,5.24,5,5,5,0,0,0,5.24-5V54.49a5.61,5.61,0,0,0-.06-.59C102.22,53.51,102.27,53.13,102.27,52.73Z"/><path class="cls-2" d="M73.45,47.64h-.37a5,5,0,0,0-5,5V77.08a18.58,18.58,0,0,1-37.12-.85h0v-23h0V47.31a5.06,5.06,0,0,0-5.22-4.94,5,5,0,0,0-5.22,4.94v5.88h0V77a4.17,4.17,0,0,0,.08.71,29,29,0,0,0,57.77,1.16c.08-1.72.14-5.35.14-5.35V52.62A5,5,0,0,0,73.45,47.64Z"/></svg>