<svg id="Warstwa_1" data-name="Warstwa 1" xmlns="http://www.w3.org/2000/svg" viewBox="0 0 763.39 188.19">
  <defs>
    <style>
      .cls-1 {
        fill: #000;
      }
    </style>
  </defs>
  <title>blueVariantLogoSimplesign</title>
  <path class="cls-1" d="M11.6,105a6.68,6.68,0,0,1,9.17-.85c5.53,4.4,15.08,9.52,24,9.4A27.59,27.59,0,0,0,60.47,109c3.77-2.68,5.4-5.74,5.4-8.79a6.78,6.78,0,0,0-1.13-3.91A11.58,11.58,0,0,0,61,92.67c-3.64-2.32-9.8-4.4-17.21-5.74h-.25A69.57,69.57,0,0,1,27.3,82.16a26.8,26.8,0,0,1-11.68-9.52,18.34,18.34,0,0,1-2.89-10c0-7.33,4.27-13.68,10.05-17.83a37.92,37.92,0,0,1,21.73-6.47c12.07,0,21,5.74,27.39,9.77a6.18,6.18,0,0,1,1.76,8.67,6.46,6.46,0,0,1-8.92,1.83c-6.41-4.15-12.56-7.82-20.23-7.82a24.45,24.45,0,0,0-14.07,4.16c-3.39,2.44-4.77,5.13-4.77,7.69A5.79,5.79,0,0,0,26.55,66a12,12,0,0,0,3.39,3.18c3.27,2.2,8.92,4.15,15.71,5.37h.25a75.41,75.41,0,0,1,17.33,5.13c5.15,2.44,9.68,5.62,12.57,10.14a19.41,19.41,0,0,1,3,10.38c0,7.82-4.52,14.54-10.8,18.93a40.05,40.05,0,0,1-23.24,7c-13.57-.12-25-6.71-32.17-12.21A6.38,6.38,0,0,1,11.6,105Z" />
  <path class="cls-1" d="M114.24,47.74a6.78,6.78,0,0,1-6.79,6.91,6.86,6.86,0,0,1-6.78-6.91V45.1a6.75,6.75,0,0,1,6.78-6.78,6.68,6.68,0,0,1,6.79,6.78Zm0,22.74v49a6.68,6.68,0,0,1-6.79,6.78,6.75,6.75,0,0,1-6.78-6.78v-49a6.7,6.7,0,0,1,6.78-6.91A6.64,6.64,0,0,1,114.24,70.48Z" />
  <path class="cls-1" d="M188.46,89.45V119.6a6.71,6.71,0,0,1-6.66,6.66A6.9,6.9,0,0,1,175,119.6V89.45a12.81,12.81,0,0,0-25.62.38V119.6c0,.25-.13.63-.13.88v.38c-.13.25-.13.5-.38.75v.63a7.33,7.33,0,0,1-6.28,4c-.5,0-.88-.13-1.26-.13a6.83,6.83,0,0,1-5.4-6.53V70.23a6.66,6.66,0,0,1,6.66-6.79,6.38,6.38,0,0,1,6,3.77,26.51,26.51,0,0,1,13.44-3.77,26.09,26.09,0,0,1,19.73,8.67,25.88,25.88,0,0,1,19.72-8.67,26.25,26.25,0,0,1,26.13,26.39V119.6a6.7,6.7,0,0,1-6.65,6.66,6.82,6.82,0,0,1-6.79-6.66V89.83a12.87,12.87,0,0,0-12.69-12.94A13,13,0,0,0,188.46,89.45Z" />
  <path class="cls-1" d="M249.34,143.09v-73A6.7,6.7,0,0,1,256,63.44c3.51,0,6.4,2.39,6.91,5.15A31.87,31.87,0,0,1,280,63.44c16.71,0,30.41,14.32,30.41,31.54S296.7,126.13,280,126.13A29,29,0,0,1,263.16,121v22.11a7.09,7.09,0,0,1-7.16,6.79A6.9,6.9,0,0,1,249.34,143.09ZM263.16,95c0,4.9,1.63,9.67,4.9,12.56A15.53,15.53,0,0,0,280,112.82a16.07,16.07,0,0,0,11.81-5.28A18.31,18.31,0,0,0,296.7,95a19.39,19.39,0,0,0-4.9-12.69A16.43,16.43,0,0,0,280,77.14a15.86,15.86,0,0,0-11.93,5.15A17.63,17.63,0,0,0,263.16,95Z" />
  <path class="cls-1" d="M338.92,38.32a7,7,0,0,1,7,6.91v74.12a7,7,0,0,1-13.94,0V45.23A7,7,0,0,1,338.92,38.32Z" />
  <path class="cls-1" d="M367.64,94.85c.12-17.09,13.44-31.41,30.65-31.41,16.33,0,29.27,12.19,30.28,29.15v.63a3.36,3.36,0,0,1-.13,1.13c-.37,3-3,5-6.53,5H382a16.54,16.54,0,0,0,4.27,8.3c2.64,3,7.66,5.27,12.06,5.65s9.93-.75,13.07-3.14c2.64-2.77,7.79-2.39,9.42-.38,1.63,1.76,2.89,5.53,0,8.17-6.16,5.65-13.57,8.29-22.49,8.29C381.08,126.13,367.76,111.94,367.64,94.85Zm13.69-6.15h35.56c-1.26-5-7.67-12.44-18.6-13.32C387.61,75.88,382.34,83.55,381.33,88.7Z" />
  <path class="cls-1" d="M597.86,47.74a6.78,6.78,0,0,1-6.79,6.91,6.86,6.86,0,0,1-6.78-6.91V45.1a6.75,6.75,0,0,1,6.78-6.78,6.68,6.68,0,0,1,6.79,6.78Zm0,22.74v49a6.68,6.68,0,0,1-6.79,6.78,6.75,6.75,0,0,1-6.78-6.78v-49a6.7,6.7,0,0,1,6.78-6.91A6.64,6.64,0,0,1,597.86,70.48Z" />
  <path class="cls-1" d="M679.85,95.44V119a30.35,30.35,0,0,1-30.16,30.35,29.09,29.09,0,0,1-13.19-3.16,6.84,6.84,0,0,1,6-12.27,15,15,0,0,0,7.16,1.77,16.87,16.87,0,0,0,16.46-13.53c-4.52,3.16-10.3,4.14-16.46,4.14-8.29,0-16-2.75-21.35-8.69a31.8,31.8,0,0,1-8.8-22.26,33.33,33.33,0,0,1,8.8-22.51,29.62,29.62,0,0,1,21.35-9.36,28.48,28.48,0,0,1,16.84,5.31,6.78,6.78,0,0,1,6.66-5.31,6.65,6.65,0,0,1,6.66,6.7v25.3Zm-13.45-.13a19.74,19.74,0,0,0-4.77-12.9A15.64,15.64,0,0,0,649.69,77a15,15,0,0,0-11.55,5.44,18.65,18.65,0,0,0-5,12.9,18.29,18.29,0,0,0,5,13,15.22,15.22,0,0,0,11.55,5.18,15.84,15.84,0,0,0,11.94-5.18A19.34,19.34,0,0,0,666.4,95.31Z" />
  <path class="cls-1" d="M753.92,89.58v30a6.6,6.6,0,0,1-6.53,6.66,6.79,6.79,0,0,1-6.66-6.66v-30a12.9,12.9,0,0,0-13.07-12.69A12.55,12.55,0,0,0,715.1,89.58v30a2.52,2.52,0,0,1-.25,1.26,6.88,6.88,0,0,1-6.66,5.4,6.63,6.63,0,0,1-6.66-6.66V70.1a6.63,6.63,0,0,1,6.66-6.66,6.78,6.78,0,0,1,6.15,3.9,25.07,25.07,0,0,1,13.32-3.9A26.31,26.31,0,0,1,753.92,89.58Z" />
  <path class="cls-1" d="M562.35,77.7c0-21.7-17.89-39.36-39.88-39.36s-39.64,17.44-39.87,39v.48l.06,8.15v24.69a6.9,6.9,0,0,0,6.92,6.83H490a6.89,6.89,0,0,0,6.92-6.83V82.17l.1-5.88a25.53,25.53,0,0,1,51,1.41c0,.26,0,.51,0,.77h0V97.19l-.05,16.33H548v6a7,7,0,0,0,7.19,6.78,6.89,6.89,0,0,0,7.19-6.78V80.12a7.34,7.34,0,0,0-.09-.82C562.28,78.76,562.35,78.24,562.35,77.7Z" />
  <path class="cls-1" d="M522.79,70.71h-.49a6.9,6.9,0,0,0-6.91,6.83v33.57A25.49,25.49,0,0,1,464.45,110h0V78.33h0V70.26a7,7,0,0,0-7.16-6.78,6.87,6.87,0,0,0-7.16,6.78v8.07h0v32.6a6.26,6.26,0,0,0,.1,1,39.77,39.77,0,0,0,79.28,1.58c.11-2.36.19-7.34.19-7.34V77.54A6.9,6.9,0,0,0,522.79,70.71Z" />
</svg>