<?xml version="1.0" standalone="no"?>
<!DOCTYPE svg PUBLIC "-//W3C//DTD SVG 20010904//EN"
 "http://www.w3.org/TR/2001/REC-SVG-20010904/DTD/svg10.dtd">
<svg version="1.0" xmlns="http://www.w3.org/2000/svg"
 width="1000.000000pt" height="1000.000000pt" viewBox="0 0 1000.000000 1000.000000"
 preserveAspectRatio="xMidYMid meet">
<metadata>
Created by potrace 1.14, written by Peter Selinger 2001-2017
</metadata>
<g transform="translate(0.000000,1000.000000) scale(0.100000,-0.100000)"
fill="#000000" stroke="none">
<path d="M1797 9454 c-1 -1 -33 -4 -72 -7 -218 -18 -420 -88 -615 -216 -80
-52 -320 -277 -320 -300 0 -5 -6 -16 -13 -23 -70 -72 -186 -329 -216 -478 -6
-30 -14 -66 -17 -80 -3 -14 -7 -83 -10 -155 -3 -71 -6 -140 -8 -152 -2 -13 1
-23 5 -23 5 0 6 -6 3 -13 -9 -23 -10 -187 -1 -187 5 0 5 -5 1 -11 -9 -15 -11
-269 -2 -269 4 0 5 -6 2 -13 -9 -23 -10 -187 -1 -187 5 0 5 -5 1 -11 -9 -15
-11 -269 -2 -269 4 0 5 -6 2 -13 -9 -23 -10 -187 -1 -187 5 0 5 -5 2 -10 -9
-15 -12 -750 -3 -750 4 0 5 -6 2 -13 -9 -23 -10 -187 -1 -187 5 0 5 -5 1 -11
-9 -15 -11 -269 -2 -269 4 0 5 -6 2 -13 -9 -23 -10 -187 -1 -187 5 0 5 -5 1
-11 -9 -15 -11 -269 -2 -269 4 0 5 -6 2 -13 -9 -23 -10 -187 -1 -187 5 0 5 -5
2 -10 -9 -15 -12 -750 -3 -750 4 0 5 -6 2 -13 -9 -23 -10 -187 -1 -187 5 0 5
-5 1 -11 -9 -15 -11 -269 -2 -269 4 0 5 -6 2 -13 -9 -23 -10 -187 -1 -187 5 0
5 -5 1 -11 -9 -15 -11 -269 -2 -269 4 0 5 -6 2 -13 -9 -23 -10 -187 -1 -187 5
0 5 -5 2 -10 -9 -15 -12 -750 -3 -750 4 0 5 -6 2 -13 -9 -23 -10 -187 -1 -187
5 0 5 -5 1 -11 -7 -13 -12 -269 -4 -269 3 0 5 -36 4 -81 0 -44 4 -83 8 -85 5
-3 6 -8 4 -12 -4 -7 4 -56 19 -127 10 -49 67 -208 81 -230 8 -11 14 -25 14
-32 0 -17 109 -193 132 -214 10 -9 18 -20 18 -25 0 -13 144 -160 199 -204 24
-19 50 -41 57 -48 8 -7 14 -11 14 -7 0 4 7 0 15 -7 26 -23 39 -33 70 -48 17
-8 32 -17 35 -20 10 -11 117 -60 181 -84 89 -33 228 -68 245 -62 8 3 14 1 14
-3 0 -5 8 -8 18 -6 9 1 27 -2 40 -6 16 -6 21 -6 16 2 -4 8 -1 8 13 1 20 -11
6459 -15 6477 -5 5 3 23 7 40 9 133 13 275 57 419 129 256 128 465 345 595
617 18 37 32 74 32 82 0 8 4 17 9 20 4 3 12 20 16 38 4 18 9 38 11 43 6 19 26
100 30 120 2 11 7 43 11 70 10 63 11 6654 1 6715 -16 96 -22 126 -30 150 -3 8
-16 48 -28 89 -13 41 -36 101 -52 133 -15 32 -28 63 -28 68 0 6 -4 10 -10 10
-5 0 -10 6 -10 13 0 45 -240 328 -330 390 -14 10 -50 35 -80 57 -30 22 -61 40
-68 40 -7 0 -15 7 -18 15 -4 8 -11 15 -17 15 -5 0 -40 14 -76 31 -84 40 -210
81 -291 96 -14 2 -36 6 -50 8 -14 3 -45 8 -70 11 -36 6 -6407 13 -6413 8z"/>
</g>
</svg>
