<svg xmlns="http://www.w3.org/2000/svg" version="1.1" xmlns:xlink="http://www.w3.org/1999/xlink" xmlns:svgjs="http://svgjs.com/svgjs" width="1440" height="560" preserveAspectRatio="none" viewBox="0 0 1440 560"><g mask="url(&quot;#SvgjsMask1046&quot;)" fill="none"><rect width="1440" height="560" x="0" y="0" fill="rgba(34, 39, 46, 1)"></rect><path d="M0,443.1C114.707,457.209,228.555,568.253,331.734,516.189C432.538,465.324,433.567,320.047,460.946,210.507C484.024,118.173,489.256,25.781,477.927,-68.716C466.357,-165.223,449.419,-261.678,394.704,-342.013C335.817,-428.474,259.31,-511.999,158.071,-538.341C57.713,-564.454,-45.005,-519.778,-141.382,-481.502C-230.455,-446.126,-306.256,-391.475,-376.339,-326.1C-453.836,-253.81,-542.062,-184.216,-569.746,-81.917C-598.756,25.284,-583.513,144.719,-530.1,242.088C-478.256,336.597,-383.924,402.342,-283.132,440.562C-193.058,474.718,-95.611,431.34,0,443.1" fill="#1f242a"></path><path d="M1440 1167.441C1555.52 1160.998 1665.462 1124.788 1764.01 1064.1689999999999 1864.024 1002.648 1978.7530000000002 932.8589999999999 2006.7440000000001 818.823 2034.4279999999999 706.038 1921.699 608.065 1904.1399999999999 493.267 1886.825 380.06600000000003 1972.473 249.539 1905.464 156.673 1839.156 64.779 1700.795 67.906 1588.171 55.375999999999976 1490.671 44.528999999999996 1398.414 72.195 1301.854 89.519 1192.188 109.195 1069.657 93.99599999999998 982.948 163.962 891.635 237.642 849.534 356.675 827.858 471.98699999999997 805.554 590.643 811.901 714.1800000000001 858.591 825.521 906.154 938.943 985.885 1039.305 1091.902 1101.652 1195.796 1162.751 1319.659 1174.152 1440 1167.441" fill="#252b32"></path></g><defs><mask id="SvgjsMask1046"><rect width="1440" height="560" fill="#ffffff"></rect></mask></defs></svg>